<?xml version="1.0" encoding="UTF-8" standalone="no"?>
<svg id="svg3" xmlns="http://www.w3.org/2000/svg" height="100%" viewBox="0 0 512 512" width="100%" version="1.1" xmlns:xlink="http://www.w3.org/1999/xlink">
 <defs id="defs13">
  <linearGradient id="b" y2="512" gradientUnits="userSpaceOnUse" x2="512" gradientTransform="translate(-512,-512)">
   <stop id="stop4757" style="stop-color:#b31b21" offset="0"/>
   <stop id="stop4759" style="stop-color:#d31019" offset="1"/>
  </linearGradient>
  <linearGradient id="a" y2="512" gradientUnits="userSpaceOnUse" x2="512">
   <stop id="stop4930" style="stop-color:#ebe9e7" offset="0"/>
   <stop id="stop4932" style="stop-color:#f7f6f5" offset="1"/>
  </linearGradient>
 </defs>
 <rect id="rect4898" style="color-rendering:auto;color:#000000;isolation:auto;mix-blend-mode:normal;paint-order:stroke fill markers;shape-rendering:auto;solid-color:#000000;image-rendering:auto;fill:url(#b)" transform="scale(-1)" height="512" width="512" y="-512" x="-512"/>
 <style id="style4981" type="text/css">.st0{fill:none;}</style>
 <rect id="rect4993" style="opacity:.05;color-rendering:auto;color:#000000;isolation:auto;mix-blend-mode:normal;paint-order:stroke fill markers;shape-rendering:auto;solid-color:#000000;image-rendering:auto" height="512" width="256" y="0" x="0"/>
 <g id="g4928" style="fill:url(#a)">
  <path id="rect4823" style="color-rendering:auto;color:#000000;isolation:auto;mix-blend-mode:normal;fill-rule:evenodd;paint-order:stroke fill markers;shape-rendering:auto;solid-color:#000000;image-rendering:auto;fill:url(#a)" d="m363.8-22.76h91.74v190.1l-45.87-39.31-45.87 39.31z"/>
  <g id="g5186" style="fill:url(#a)" transform="matrix(2.95 0 0 2.95 121.5 121.5)">
   <path id="path5180" style="fill:url(#a)" d="m42.01 23.51c-1.258 0-2.279 1.02-2.279 2.277v30.35c0 1.26 1.021 2.28 2.279 2.28 1.257 0 2.279-1.021 2.279-2.28v-30.36c0-1.26-1.02-2.28-2.28-2.28z"/>
   <path id="path5182" style="fill:url(#a)" d="m49.16 23.51c-1.26 0-2.28 1.02-2.28 2.277v30.35c0 1.26 1.021 2.28 2.28 2.28 1.257 0 2.277-1.021 2.277-2.28v-30.36c0-1.26-1.02-2.28-2.28-2.28z"/>
   <path id="path5184" style="fill:url(#a)" d="m45.58 0.25c-24.99 0-45.33 20.34-45.33 45.33 0 25 20.34 45.33 45.33 45.33 25 0 45.34-20.34 45.34-45.33s-20.34-45.33-45.34-45.33zm7.687 85.37v-7.986c0.297-2.993 0.748-3.335 2.576-4.732 0.93-0.711 2.085-1.594 3.481-3.008 4.19-4.24 3.06-11.75 2.93-12.49l-4.08-31.9c-0.159-1.249-1.327-2.149-2.549-1.97-1.249 0.159-2.131 1.3-1.972 2.547l4.09 31.99c0.261 1.537 0.514 6.42-1.667 8.629-1.17 1.188-2.146 1.932-3.005 2.589-2.398 1.831-3.894 3.199-4.356 8.025-0.007 0.073-0.009 0.146-0.009 0.22v8.701c-1.035 0.079-2.076 0.133-3.131 0.133-1.053 0-2.095-0.054-3.128-0.133v-8.701c0-0.074-0.004-0.146-0.011-0.217-0.46-4.82-1.96-6.19-4.36-8.02-0.86-0.66-1.83-1.4-3-2.59-2.18-2.2-1.94-6.98-1.66-8.72l4.076-31.9c0.161-1.247-0.722-2.388-1.973-2.547-1.229-0.179-2.391 0.721-2.549 1.97l-4.063 31.81c-0.142 0.841-1.274 8.349 2.918 12.59 1.396 1.414 2.554 2.299 3.484 3.008 1.826 1.397 2.279 1.739 2.574 4.732v7.986c-18.82-3.61-33.09-20.19-33.09-40.05-0.003-22.48 18.29-40.77 40.77-40.77s40.78 18.29 40.78 40.78c0 19.86-14.27 36.43-33.09 40.04z"/>
  </g>
 </g>
</svg>
